<?xml version="1.0" standalone="no"?><!DOCTYPE svg PUBLIC "-//W3C//DTD SVG 1.1//EN" "http://www.w3.org/Graphics/SVG/1.1/DTD/svg11.dtd"><svg width="100%" height="100%" viewBox="0 0 400 75" version="1.1" xmlns="http://www.w3.org/2000/svg" xmlns:xlink="http://www.w3.org/1999/xlink" xml:space="preserve" style="fill-rule:evenodd;clip-rule:evenodd;stroke-linecap:round;stroke-linejoin:round;stroke-miterlimit:1.41421;"><g id="Logo"><path d="M80.879,38.127c0.029,0.543 0.043,1.09 0.043,1.641c0,16.772 -13.427,30.388 -29.965,30.388c-16.539,0 -29.966,-13.616 -29.966,-30.388c0,-16.772 13.427,-30.388 29.966,-30.388c2.386,0 4.707,0.283 6.932,0.819c-1.121,-0.148 -2.264,-0.224 -3.425,-0.224c-14.596,0 -26.447,12.018 -26.447,26.82c0,14.803 11.851,26.82 26.447,26.82c14.157,0 25.73,-11.303 26.415,-25.488Z" style="fill:#fff;"/><path d="M42.768,26.25c22.569,-12.259 44.251,-16.027 48.389,-8.409c4.138,7.618 -10.825,23.756 -33.394,36.015c-22.569,12.259 -44.251,16.027 -48.389,8.409c-4.138,-7.619 10.825,-23.756 33.394,-36.015Z" style="fill:none;stroke-width:6px;stroke:#fff;"/></g><g id="Logo1"><path d="M21.076,39.62c0,-16.771 13.427,-30.388 29.965,-30.388c2.386,0 4.707,0.284 6.932,0.819c-1.121,-0.148 -2.264,-0.223 -3.424,-0.223c-14.169,0 -25.75,11.323 -26.384,25.549l-0.063,1.271c0,10.532 6,19.655 14.753,24.024c-3.382,1.317 -6.647,2.402 -9.746,3.246c-6.965,-5.251 -11.584,-13.526 -11.964,-22.92l-0.069,-1.378Z" style="fill:#fff;"/></g><text x="100.084px" y="63.857px" style="font-family:'Helvetica-Bold';font-size:73.679px;fill:#fff;">H<tspan x="149.609px 166.396px 191.385px 228.678px 282.304px 307.293px 348.615px 365.402px " y="63.857px 63.857px 63.857px 63.857px 63.857px 63.857px 63.857px 63.857px ">ireOrbit</tspan></text></svg>